#!OML:ASF X:\für Bonn\!DataBase\2005_08_12_Daniel\c3d\Daniel.ASF
:FULLY-SPECIFIED
:DEGREES
36
root -1.18615 15.8755 -6.95026 -1613.98 126.488 198.731
lowerback 26.7971 -3.24834 -4.71641
upperback 9.35322 -5.0864 -3.70324
thorax -4.30449 -2.26691 0.122861
lowerneck 5.32347 4.75814 -4.66763
upperneck 15.2486 6.6217 -0.639764
head 3.93916 3.0783 0.701493
rclavicle 9.49197e-014 -1.25234e-014
rhumerus -393.222 -10.1243 279.314
rradius 21.9589
rwrist 26.8887
rhand -16.1328 737.569
rfingers 7.12502
rthumb 10.072 707.83
lclavicle 9.49197e-014 -1.25234e-014
lhumerus -558.418 173.693 -472.675
lradius 44.0656
lwrist -2.93609
lhand -20.1664 -724.304
lfingers 7.12502
lthumb 6.17914 25.5858
rfemur -573.798 -168.789 551.864
rtibia 26.8269
rfoot -22.2881 -17.3992
rtoes 16.5306
lfemur 20.4536 -0.328174 -30.1613
ltibia 30.403
lfoot -40.8943 5.58563
ltoes -4.71329
37
root -1.04116 15.8253 -6.85683 -1614.09 126.643 198.555
lowerback 26.7875 -3.46788 -4.20588
upperback 9.49088 -5.21719 -3.54329
thorax -4.17786 -2.32988 0.0423577
lowerneck 5.44974 4.77297 -4.66716
upperneck 15.0592 6.62895 -0.716592
head 3.8501 3.08242 0.667919
rclavicle 7.00716e-014 -3.83654e-014
rhumerus -393.165 -11.9935 280.235
rradius 21.3619
rwrist 27.8516
rhand -16.3339 737.399
rfingers 7.12502
rthumb 9.87806 707.651
lclavicle 7.00716e-014 -3.83654e-014
lhumerus -558.711 173.779 -472.225
lradius 44.9473
lwrist -2.78297
lhand -20.1921 -724.336
lfingers 7.12502
lthumb 6.15431 25.5542
rfemur -574.349 -168.407 551.975
rtibia 27.4748
rfoot -21.6576 -17.7248
rtoes 16.229
lfemur 20.7324 0.0466572 -29.8679
ltibia 30.9808
lfoot -40.9801 5.00464
ltoes -4.67046
38
root -0.897005 15.7773 -6.76167 -1614.31 126.829 198.236
lowerback 26.8358 -3.68844 -3.58019
upperback 9.58963 -5.3272 -3.35877
thorax -4.13233 -2.37916 -0.0777116
lowerneck 5.6338 4.80233 -4.81442
upperneck 14.8447 6.63833 -0.705962
head 3.73397 3.08448 0.685273
rclavicle 9.63112e-014 3.10104e-014
rhumerus -393.216 -13.6885 281.112
rradius 20.8684
rwrist 28.4043
rhand -16.5407 737.171
rfingers 7.12502
rthumb 9.6785 707.413
lclavicle 9.63112e-014 3.10104e-014
lhumerus -559.086 173.843 -471.738
lradius 45.8045
lwrist -2.67301
lhand -20.2175 -724.361
lfingers 7.12502
lthumb 6.1298 25.5305
rfemur -574.919 -168.046 552.209
rtibia 28.2989
rfoot -20.9309 -17.8687
rtoes 16.7517
lfemur 20.877 0.478775 -29.435
ltibia 31.7732
lfoot -40.9865 4.39303
ltoes -4.72006
39
root -0.75527 15.7323 -6.6669 -1614.57 127.059 197.844
lowerback 26.9226 -3.92399 -2.89274
upperback 9.69748 -5.4415 -3.18491
thorax -4.10271 -2.42778 -0.241175
lowerneck 5.66451 4.84587 -5.02396
upperneck 14.6866 6.67057 -0.647806
head 3.66235 3.09362 0.734781
rclavicle 1.55847e-013 -1.90833e-014
rhumerus -393.233 -15.0477 281.807
rradius 20.4889
rwrist 28.3954
rhand -16.7468 736.914
rfingers 7.12502
rthumb 9.47966 707.148
lclavicle 1.55847e-013 -1.90833e-014
lhumerus -559.487 173.85 -471.261
lradius 46.6931
lwrist -2.51584
lhand -20.2321 -724.395
lfingers 7.12502
lthumb 6.11576 25.4968
rfemur -575.537 -167.609 552.583
rtibia 29.2509
rfoot -19.9879 -17.8919
rtoes 17.7222
lfemur 20.8342 1.00422 -28.8896
ltibia 32.8117
lfoot -40.8459 3.66363
ltoes -4.75991
40
root -0.615073 15.6901 -6.57183 -1614.89 127.343 197.381
lowerback 27.0902 -4.14686 -2.16354
upperback 9.77888 -5.53117 -2.99437
thorax -4.14378 -2.46191 -0.411443
lowerneck 5.71148 4.89295 -5.33362
upperneck 14.5225 6.69867 -0.540269
head 3.58118 3.098 0.816166
rclavicle -2.36753e-013 9.34288e-014
rhumerus -393.307 -15.9819 282.35
rradius 20.2624
rwrist 27.7729
rhand -16.9705 736.633
rfingers 7.12502
rthumb 9.26377 706.857
lclavicle -2.36753e-013 9.34288e-014
lhumerus -559.944 173.864 -470.725
lradius 47.5601
lwrist -2.26697
lhand -20.2229 -724.499
lfingers 7.12502
lthumb 6.12458 25.3923
rfemur -576.158 -167.062 553.126
rtibia 30.3084
rfoot -18.6943 -17.8728
rtoes 18.8256
lfemur 20.6418 1.61266 -28.2431
ltibia 34.1123
lfoot -40.5233 2.79991
ltoes -4.78829
41
root -0.476865 15.6535 -6.47506 -1615.35 127.644 196.708
lowerback 27.3225 -4.38832 -1.31741
upperback 9.85289 -5.61183 -2.78158
thorax -4.23249 -2.48888 -0.621631
lowerneck 5.602 4.9543 -5.65434
upperneck 14.4436 6.75434 -0.385121
head 3.55608 3.11386 0.922154
rclavicle 8.56762e-014 1.23246e-014
rhumerus -393.339 -16.6896 282.774
rradius 20.0739
rwrist 26.8014
rhand -17.2027 736.354
rfingers 7.12502
rthumb 9.0397 706.568
lclavicle 8.56762e-014 1.23246e-014
lhumerus -560.425 173.863 -470.174
lradius 48.416
lwrist -1.96928
lhand -20.1942 -724.554
lfingers 7.12502
lthumb 6.15228 25.3363
rfemur -576.75 -166.605 553.818
rtibia 31.4377
rfoot -17.2684 -17.9574
rtoes 20.6489
lfemur 20.2832 2.3024 -27.3602
ltibia 35.6931
lfoot -39.9834 1.84808
ltoes -4.87949
42
root -0.341577 15.6191 -6.37769 -1615.92 127.961 195.909
lowerback 27.6591 -4.64336 -0.433258
upperback 9.91612 -5.69267 -2.53799
thorax -4.38187 -2.51429 -0.812669
lowerneck 5.38763 5.00963 -5.87167
upperneck 14.4368 6.82378 -0.305219
head 3.5812 3.13667 0.991952
rclavicle -1.19271e-015 4.53229e-014
rhumerus -393.369 -17.2587 283.148
rradius 19.9277
rwrist 25.7357
rhand -17.489 736.155
rfingers 7.12502
rthumb 8.76348 706.357
lclavicle -1.19271e-015 4.53229e-014
lhumerus -560.903 173.787 -469.591
lradius 49.1869
lwrist -1.63541
lhand -20.1732 -724.667
lfingers 7.12502
lthumb 6.1726 25.2226
rfemur -577.333 -166.207 554.602
rtibia 32.6211
rfoot -15.7058 -18.1592
rtoes 22.4318
lfemur 19.7613 3.04358 -26.3074
ltibia 37.5759
lfoot -39.1069 0.707896
ltoes -4.81655
43
root -0.208638 15.5905 -6.27957 -1616.65 128.296 194.927
lowerback 28.09 -4.90716 0.540289
upperback 9.9683 -5.7498 -2.26318
thorax -4.59081 -2.52654 -1.02044
lowerneck 5.23608 5.03869 -5.92194
upperneck 14.4043 6.86804 -0.328969
head 3.5953 3.15298 0.99724
rclavicle 1.47101e-014 -7.55382e-014
rhumerus -393.482 -17.5248 283.392
rradius 19.9544
rwrist 24.3063
rhand -17.7982 735.886
rfingers 7.12502
rthumb 8.46507 706.076
lclavicle 1.47101e-014 -7.55382e-014
lhumerus -561.375 173.752 -468.98
lradius 49.8861
lwrist -1.32497
lhand -20.0807 -724.81
lfingers 7.12502
lthumb 6.26192 25.0774
rfemur -577.845 -165.928 555.487
rtibia 33.8275
rfoot -14.1829 -18.402
rtoes 24.0436
lfemur 19.0426 3.88637 -25.0093
ltibia 39.7837
lfoot -37.8154 -0.455768
ltoes -4.96502
44
root -0.0792954 15.5671 -6.18155 -1617.41 128.68 193.897
lowerback 28.5921 -5.16073 1.49973
upperback 10.0125 -5.78313 -1.97852
thorax -4.83585 -2.52761 -1.21149
lowerneck 5.09315 5.05727 -5.83123
upperneck 14.4378 6.91413 -0.445493
head 3.63931 3.17264 0.950146
rclavicle 5.60573e-014 -4.77083e-014
rhumerus -393.593 -17.781 283.646
rradius 19.9887
rwrist 23.0259
rhand -18.1181 735.621
rfingers 7.12502
rthumb 8.15634 705.798
lclavicle 5.60573e-014 -4.77083e-014
lhumerus -561.88 173.729 -468.364
lradius 50.5859
lwrist -1.03115
lhand -19.9566 -724.871
lfingers 7.12502
lthumb 6.38169 25.0133
rfemur -578.344 -165.753 556.409
rtibia 35.0995
rfoot -12.6965 -18.668
rtoes 24.4651
lfemur 18.0738 4.88637 -23.5353
ltibia 42.3186
lfoot -35.9916 -1.453
ltoes -5.512
45
root 0.047503 15.5415 -6.08416 -1618.23 129.096 192.825
lowerback 29.1552 -5.40721 2.43052
upperback 10.0691 -5.79736 -1.69024
thorax -5.08773 -2.5196 -1.38453
lowerneck 4.95938 5.05597 -5.51853
upperneck 14.4908 6.9516 -0.691819
head 3.70109 3.19396 0.823826
rclavicle 3.57812e-014 -1.66979e-014
rhumerus -393.642 -18.014 283.883
rradius 19.9916
rwrist 21.8728
rhand -18.4165 735.443
rfingers 7.12502
rthumb 7.8684 705.61
lclavicle 3.57812e-014 -1.66979e-014
lhumerus -562.37 173.767 -467.798
lradius 51.2362
lwrist -0.753179
lhand -19.7009 -724.901
lfingers 7.12502
lthumb 6.62852 24.9749
rfemur -578.849 -165.615 557.369
rtibia 36.4594
rfoot -11.3669 -18.7721
rtoes 24.3567
lfemur 16.9157 5.97447 -21.9178
ltibia 45.147
lfoot -33.7695 -2.30197
ltoes -6.61371
46
root 0.171549 15.5087 -5.98807 -1619.01 129.581 191.808
lowerback 29.7615 -5.61706 3.24563
upperback 10.131 -5.77944 -1.39478
thorax -5.33653 -2.49788 -1.49183
lowerneck 4.85742 5.04463 -5.09488
upperneck 14.5608 6.9842 -1.0155
head 3.77076 3.21547 0.653122
rclavicle 6.08281e-014 -8.11041e-014
rhumerus -393.642 -18.1902 284.124
rradius 19.98
rwrist 20.911
rhand -18.6333 735.288
rfingers 7.12502
rthumb 7.65914 705.446
lclavicle 6.08281e-014 -8.11041e-014
lhumerus -562.858 173.859 -467.229
lradius 51.8374
lwrist -0.569919
lhand -19.4214 -724.887
lfingers 7.12502
lthumb 6.89833 24.9806
rfemur -579.396 -165.54 558.307
rtibia 37.9099
rfoot -10.2766 -18.7133
rtoes 23.5305
lfemur 15.6056 7.03606 -20.3371
ltibia 48.2115
lfoot -31.2179 -2.96733
ltoes -7.89863
